# xmcd
#
# Track frame offsets:
#	183
#	16543
#	31083
#	46643
#	87213
#	110205
#	127650
#	143943
#
# Disc length: 2251 seconds
#
# Revision: 0
# Processed by: cddbd v1.5.2PL0 Copyright (c) Steve Scherf et al.
# Submitted via: audiograbber 1.83.01
#
DISCID=5408c908
DTITLE=Spooky Tooth - Spooky Two
DYEAR=1969
DGENRE=Rock
TTITLE0=Waiting For The Wind
TTITLE1=Feelin' Bad
TTITLE2=I've Got Enough Heartache
TTITLE3=Evil Woman
TTITLE4=Lost In My Dream
TTITLE5=That Was Only Yesterday
TTITLE6=Better By You, Better Than Me
TTITLE7=Hangman Hang My Shell On A Tree
EXTD=
EXTT0=
EXTT1=
EXTT2=
EXTT3=
EXTT4=
EXTT5=
EXTT6=
EXTT7=
PLAYORDER=
